# xmcd CD database file
#
# Track frame offsets:
#	150
#	16852
#	35272
#	52085
#	71817
#	90165
#	103980
#	124232
#	145250
#	163592
#
# Disc length: 2439 seconds
#
# Revision: 2
# Processed by: cddbd v1.5.2PL0 Copyright (c) Steve Scherf et al.
# Submitted via: CDex 1.79
#
DISCID=8509850a
DTITLE=Charlie Major - Inside Out
DYEAR=2004
DGENRE=Country
TTITLE0=When You're Good, You're Good
TTITLE1=You'd Better Go
TTITLE2=I'm Still Looking 
TTITLE3=My Brother and Me
TTITLE4=Just For Old Times
TTITLE5=I'm Alright
TTITLE6=Last Peaceful Place In The World
TTITLE7=The Face Of Love
TTITLE8=Nothing But Alone Again
TTITLE9=Backroads
EXTD=YEAR: 2004
EXTT0=
EXTT1=
EXTT2=
EXTT3=
EXTT4=
EXTT5=
EXTT6=
EXTT7=
EXTT8=
EXTT9=
PLAYORDER=
